<svg width="282" height="80" viewBox="0 0 282 80" fill="none" xmlns="http://www.w3.org/2000/svg">
<rect width="282" height="80" rx="12" fill="#ACE6FC"/>
<path d="M97.8838 34.7021C96.1579 34.7021 94.7936 35.2786 93.791 36.4316C92.7956 37.5775 92.2979 39.1494 92.2979 41.1475C92.2979 43.2028 92.7777 44.7926 93.7373 45.917C94.7041 47.0342 96.0791 47.5928 97.8623 47.5928C98.958 47.5928 100.208 47.3958 101.611 47.002V48.6025C100.523 49.0107 99.18 49.2148 97.583 49.2148C95.2699 49.2148 93.4831 48.513 92.2227 47.1094C90.9694 45.7057 90.3428 43.7113 90.3428 41.126C90.3428 39.5075 90.6436 38.0895 91.2451 36.8721C91.8538 35.6546 92.7275 34.7165 93.8662 34.0576C95.012 33.3988 96.3584 33.0693 97.9053 33.0693C99.5524 33.0693 100.992 33.3701 102.224 33.9717L101.45 35.54C100.261 34.9814 99.0726 34.7021 97.8838 34.7021ZM118.67 41.126C118.67 43.6396 118.033 45.6162 116.758 47.0557C115.49 48.4951 113.725 49.2148 111.462 49.2148C109.149 49.2148 107.362 48.5094 106.102 47.0986C104.848 45.6807 104.222 43.6826 104.222 41.1045C104.222 38.5479 104.852 36.5677 106.112 35.1641C107.373 33.7533 109.163 33.0479 111.483 33.0479C113.739 33.0479 115.501 33.764 116.769 35.1963C118.036 36.6286 118.67 38.6051 118.67 41.126ZM106.155 41.126C106.155 43.2529 106.606 44.8678 107.509 45.9707C108.418 47.0664 109.736 47.6143 111.462 47.6143C113.202 47.6143 114.516 47.0664 115.404 45.9707C116.292 44.875 116.736 43.2601 116.736 41.126C116.736 39.0133 116.292 37.4128 115.404 36.3242C114.523 35.2285 113.216 34.6807 111.483 34.6807C109.743 34.6807 108.418 35.2321 107.509 36.335C106.606 37.4307 106.155 39.0277 106.155 41.126ZM129.133 49L123.805 35.0781H123.719C123.819 36.181 123.869 37.4915 123.869 39.0098V49H122.183V33.2949H124.933L129.906 46.25H129.992L135.009 33.2949H137.737V49H135.911V38.8809C135.911 37.7207 135.961 36.4603 136.062 35.0996H135.976L130.604 49H129.133ZM142.056 49V33.2949H143.882V49H142.056ZM160.468 49H158.384L149.801 35.8193H149.715C149.829 37.3662 149.887 38.7842 149.887 40.0732V49H148.2V33.2949H150.263L158.824 46.4219H158.91C158.896 46.2285 158.864 45.609 158.813 44.5635C158.763 43.5107 158.745 42.7588 158.76 42.3076V33.2949H160.468V49ZM171.693 40.7715H177.032V48.4092C176.201 48.6742 175.356 48.8747 174.497 49.0107C173.638 49.1468 172.642 49.2148 171.511 49.2148C169.133 49.2148 167.282 48.5094 165.957 47.0986C164.632 45.6807 163.97 43.6969 163.97 41.1475C163.97 39.5146 164.296 38.0859 164.947 36.8613C165.606 35.6296 166.551 34.6914 167.783 34.0469C169.015 33.3952 170.458 33.0693 172.112 33.0693C173.788 33.0693 175.349 33.3773 176.796 33.9932L176.087 35.6045C174.669 35.0029 173.305 34.7021 171.994 34.7021C170.082 34.7021 168.589 35.2715 167.515 36.4102C166.44 37.5488 165.903 39.1279 165.903 41.1475C165.903 43.2673 166.419 44.875 167.45 45.9707C168.489 47.0664 170.01 47.6143 172.016 47.6143C173.104 47.6143 174.168 47.4889 175.206 47.2383V42.4043H171.693V40.7715ZM195.391 44.8213C195.391 46.2035 194.889 47.2812 193.887 48.0547C192.884 48.8281 191.523 49.2148 189.805 49.2148C187.943 49.2148 186.51 48.9749 185.508 48.4951V46.7334C186.152 47.0055 186.854 47.2204 187.613 47.3779C188.372 47.5355 189.124 47.6143 189.869 47.6143C191.087 47.6143 192.003 47.3851 192.619 46.9268C193.235 46.4613 193.543 45.8167 193.543 44.9932C193.543 44.4489 193.432 44.0049 193.21 43.6611C192.995 43.3102 192.63 42.988 192.114 42.6943C191.606 42.4007 190.829 42.0677 189.783 41.6953C188.322 41.1725 187.277 40.5531 186.646 39.8369C186.023 39.1208 185.712 38.1862 185.712 37.0332C185.712 35.8229 186.167 34.8597 187.076 34.1436C187.986 33.4274 189.189 33.0693 190.686 33.0693C192.247 33.0693 193.683 33.3558 194.993 33.9287L194.424 35.5186C193.128 34.9743 191.867 34.7021 190.643 34.7021C189.676 34.7021 188.92 34.9098 188.376 35.3252C187.832 35.7406 187.56 36.3171 187.56 37.0547C187.56 37.599 187.66 38.0465 187.86 38.3975C188.061 38.7412 188.397 39.0599 188.87 39.3535C189.35 39.64 190.08 39.9587 191.062 40.3096C192.709 40.8968 193.84 41.527 194.456 42.2002C195.079 42.8734 195.391 43.7471 195.391 44.8213ZM212.234 41.126C212.234 43.6396 211.597 45.6162 210.322 47.0557C209.055 48.4951 207.289 49.2148 205.026 49.2148C202.713 49.2148 200.926 48.5094 199.666 47.0986C198.413 45.6807 197.786 43.6826 197.786 41.1045C197.786 38.5479 198.416 36.5677 199.677 35.1641C200.937 33.7533 202.728 33.0479 205.048 33.0479C207.304 33.0479 209.065 33.764 210.333 35.1963C211.601 36.6286 212.234 38.6051 212.234 41.126ZM199.72 41.126C199.72 43.2529 200.171 44.8678 201.073 45.9707C201.983 47.0664 203.3 47.6143 205.026 47.6143C206.767 47.6143 208.081 47.0664 208.969 45.9707C209.857 44.875 210.301 43.2601 210.301 41.126C210.301 39.0133 209.857 37.4128 208.969 36.3242C208.088 35.2285 206.781 34.6807 205.048 34.6807C203.308 34.6807 201.983 35.2321 201.073 36.335C200.171 37.4307 199.72 39.0277 199.72 41.126ZM229.379 41.126C229.379 43.6396 228.742 45.6162 227.467 47.0557C226.199 48.4951 224.434 49.2148 222.171 49.2148C219.858 49.2148 218.071 48.5094 216.811 47.0986C215.557 45.6807 214.931 43.6826 214.931 41.1045C214.931 38.5479 215.561 36.5677 216.821 35.1641C218.082 33.7533 219.872 33.0479 222.192 33.0479C224.448 33.0479 226.21 33.764 227.478 35.1963C228.745 36.6286 229.379 38.6051 229.379 41.126ZM216.864 41.126C216.864 43.2529 217.315 44.8678 218.218 45.9707C219.127 47.0664 220.445 47.6143 222.171 47.6143C223.911 47.6143 225.225 47.0664 226.113 45.9707C227.001 44.875 227.445 43.2601 227.445 41.126C227.445 39.0133 227.001 37.4128 226.113 36.3242C225.232 35.2285 223.925 34.6807 222.192 34.6807C220.452 34.6807 219.127 35.2321 218.218 36.335C217.315 37.4307 216.864 39.0277 216.864 41.126ZM245.159 49H243.075L234.492 35.8193H234.406C234.521 37.3662 234.578 38.7842 234.578 40.0732V49H232.892V33.2949H234.954L243.516 46.4219H243.602C243.587 46.2285 243.555 45.609 243.505 44.5635C243.455 43.5107 243.437 42.7588 243.451 42.3076V33.2949H245.159V49Z" fill="white"/>
<path d="M64.9766 18H39.0234C34.0479 18 30 22.0479 30 27.0234V52.9766C30 57.9521 34.0479 62 39.0234 62H64.9766C69.9521 62 74 57.9521 74 52.9766V27.0234C74 22.0479 69.9521 18 64.9766 18ZM43.548 51.9036C43.1505 52.5921 42.4268 52.9773 41.6837 52.9774C41.3194 52.9774 40.9506 52.8849 40.6131 52.69C39.5872 52.0978 39.2344 50.7812 39.8267 49.7553L40.2492 49.0234H45.2109L43.548 51.9036ZM39.4961 47.3047C38.3114 47.3047 37.3477 46.3409 37.3477 45.1562C37.3477 43.9716 38.3114 43.0078 39.4961 43.0078H43.7223L49.5192 32.9674L47.9481 30.2463C47.3559 29.2203 47.7085 27.9038 48.7345 27.3114H48.7345C49.7605 26.7191 51.077 27.072 51.6693 28.0978L52 28.6706L52.3307 28.0979C52.9232 27.0719 54.2398 26.7192 55.2655 27.3115C55.7624 27.5984 56.118 28.0617 56.2665 28.616C56.415 29.1703 56.3387 29.7494 56.0518 30.2464L48.6839 43.0078H53.3313L55.8122 47.3047H39.4961ZM64.5039 47.3047H62.7584L64.1732 49.7552C64.7656 50.781 64.4128 52.0976 63.387 52.69C63.0559 52.8811 62.6884 52.9788 62.3161 52.9788C62.1295 52.9788 61.9418 52.9543 61.7566 52.9046C61.2022 52.756 60.7389 52.4005 60.452 51.9035L52.9922 38.9829L55.473 34.6861L60.2777 43.0078H64.5039C65.6886 43.0078 66.6523 43.9716 66.6523 45.1562C66.6523 46.3409 65.6886 47.3047 64.5039 47.3047Z" fill="white"/>
</svg>
