<svg width="40" height="34" viewBox="0 0 40 34" fill="none" xmlns="http://www.w3.org/2000/svg">
<path d="M38.006 29.4954H36.6257V17.1917C36.6257 15.9917 35.6497 15.0154 34.4501 15.0154H28.1195L28.1213 10.5275C28.1216 10.201 27.8574 9.9364 27.5311 9.9361C27.2052 9.9361 26.9406 10.2007 26.9406 10.5269L26.9388 15.0154H21.6196C20.9949 15.0154 20.4315 15.2803 20.0342 15.7036C19.6371 15.2803 19.0735 15.0154 18.4491 15.0154H12.1182V2.69183C12.1182 2.14374 12.5644 1.69788 13.1131 1.69788H15.7886V3.86249C15.7886 4.60406 16.391 5.2074 17.1317 5.2074H21.73C22.4695 5.2074 23.0713 4.60406 23.0713 3.86249V1.69788H25.9436C26.492 1.69788 26.9385 2.14374 26.9385 2.69214V7.75134C26.9385 8.07788 27.2028 8.34247 27.529 8.34247C27.8549 8.34247 28.1192 8.07788 28.1192 7.75134V2.69183C28.1192 1.49188 27.1432 0.515625 25.9436 0.515625H13.1131C11.9135 0.515625 10.9375 1.49188 10.9375 2.69183V15.0154H5.61829C4.41895 15.0154 3.44269 15.9917 3.44269 17.1917V29.4954H1.99188C0.893555 29.4954 0 30.3902 0 31.4901C0 32.5896 0.893555 33.4844 1.99188 33.4844H38.006C39.1055 33.4844 40 32.5896 40 31.4901C40 30.3902 39.1055 29.4954 38.006 29.4954ZM21.8903 3.86249C21.8903 3.95068 21.817 4.02545 21.73 4.02545H17.1317C17.0435 4.02545 16.9693 3.95068 16.9693 3.86249V1.69788H21.8903V3.86249ZM25.4758 16.1977H30.3967V18.3623C30.3967 18.4493 30.3226 18.5228 30.2347 18.5228H25.6381C25.5499 18.5228 25.4758 18.4493 25.4758 18.3623V16.1977ZM21.6196 16.1977H24.2947V18.3623C24.2947 19.1027 24.8975 19.7051 25.6381 19.7051H30.2344C30.975 19.7051 31.5775 19.1027 31.5775 18.3623V16.1977H34.4501C34.9985 16.1977 35.4449 16.6436 35.4449 17.1917V29.4954H20.6247V17.1917C20.6247 16.6436 21.0712 16.1977 21.6196 16.1977ZM9.47693 16.1977H14.3958V18.3623C14.3958 18.4493 14.3225 18.5228 14.2355 18.5228H9.63715C9.54865 18.5228 9.47693 18.4508 9.47693 18.3623V16.1977ZM38.006 32.3021H1.99188C1.54449 32.3021 1.18073 31.9377 1.18073 31.4901C1.18073 31.0421 1.54449 30.6777 1.99188 30.6777H10.3055C10.6317 30.6777 10.896 30.4131 10.896 30.0865C10.896 29.76 10.6317 29.4954 10.3055 29.4954H4.62372V17.1917C4.62372 16.6436 5.06989 16.1977 5.61829 16.1977H8.2959V18.3623C8.2959 19.1027 8.8974 19.7051 9.63684 19.7051H14.2355C14.975 19.7051 15.5765 19.1027 15.5765 18.3623V16.1977H18.4491C18.9975 16.1977 19.444 16.6436 19.444 17.1917V29.4954H13.0112C12.6852 29.4954 12.421 29.76 12.421 30.0865C12.421 30.4131 12.6852 30.6777 13.0112 30.6777H38.0057C38.4543 30.6777 38.8193 31.0421 38.8193 31.4897C38.8193 31.9377 38.4543 32.3021 38.006 32.3021Z" fill="#3ABEF0"/>
</svg>
