<svg width="40" height="31" viewBox="0 0 40 31" fill="none" xmlns="http://www.w3.org/2000/svg">
<path d="M0 0V20.6457V21.937V27.0945H14.2677C13.5748 27.7717 13.1024 28.6693 12.9606 29.6772H8.3937V30.9685H12.9134H27.1102H31.6299V29.6772H27.063C26.9213 28.6693 26.4488 27.7717 25.7559 27.0945H40V21.937V20.6457V0H0ZM14.2598 29.6772C14.5591 28.2047 15.8661 27.0945 17.4173 27.0945H22.5748C24.1417 27.0945 25.4409 28.2047 25.7402 29.6772H14.2598ZM38.7087 25.8031H22.5827H17.4252H1.29134V21.9291H38.7087V25.8031V25.8031ZM38.7087 20.6378H1.29134V1.28346H38.7087V20.6378V20.6378Z" fill="#3ABEF0"/>
<path d="M20.6456 23.2205H19.3542V24.5118H20.6456V23.2205Z" fill="#3ABEF0"/>
<path d="M23.2283 23.2205H21.937V24.5118H23.2283V23.2205Z" fill="#3ABEF0"/>
<path d="M18.0631 23.2205H16.7717V24.5118H18.0631V23.2205Z" fill="#3ABEF0"/>
<path d="M7.39363 12.8897H15.3306L16.9921 7.0865H6.29914L5.69284 3.85815H3.22827V5.14949H4.62985L4.99205 7.0865L6.07867 12.8897L6.55898 15.4723H6.95268C6.64559 15.8188 6.44874 16.2676 6.44874 16.7637C6.44874 17.8345 7.31489 18.7007 8.38575 18.7007C9.45662 18.7007 10.3228 17.8345 10.3228 16.7637C10.3228 16.2676 10.1259 15.8188 9.81882 15.4723H12.7637C12.4566 15.8188 12.2598 16.2676 12.2598 16.7637C12.2598 17.8345 13.1259 18.7007 14.1968 18.7007C15.2676 18.7007 16.1338 17.8345 16.1338 16.7637C16.1338 16.2676 15.9369 15.8188 15.6298 15.4723H16.4566V14.181H7.63772L7.39363 12.8897ZM6.54323 8.37784H15.2755L14.3543 11.6062H7.14953L6.54323 8.37784ZM14.1968 16.118C14.5511 16.118 14.8424 16.4093 14.8424 16.7637C14.8424 17.118 14.5511 17.4093 14.1968 17.4093C13.8424 17.4093 13.5511 17.118 13.5511 16.7637C13.5511 16.4093 13.8346 16.118 14.1968 16.118ZM8.38575 16.118C8.74008 16.118 9.03142 16.4093 9.03142 16.7637C9.03142 17.118 8.74008 17.4093 8.38575 17.4093C8.03142 17.4093 7.74008 17.118 7.74008 16.7637C7.74008 16.4093 8.03142 16.118 8.38575 16.118Z" fill="#3ABEF0"/>
<path d="M22.5828 3.2124V12.2439H36.7717V3.2124H22.5828ZM35.4883 10.9604H35.4804H23.8741V7.08642H35.4883V10.9604ZM35.4883 5.79508H35.4804H23.8741V4.50374H35.4883V5.79508Z" fill="#3ABEF0"/>
<path d="M26.4488 9.02344H25.1575V10.3148H26.4488V9.02344Z" fill="#3ABEF0"/>
<path d="M29.0316 9.02344H27.7402V10.3148H29.0316V9.02344Z" fill="#3ABEF0"/>
<path d="M31.6141 9.02344H30.3228V10.3148H31.6141V9.02344Z" fill="#3ABEF0"/>
</svg>
