<svg width="84" height="72" viewBox="0 0 84 72" fill="none" xmlns="http://www.w3.org/2000/svg">
<path d="M24.4805 66.3954L36.5028 53.3044L33.9275 46.5816C33.9275 46.5816 26.182 47.6726 25.9637 48.3271C25.7456 48.9817 25.091 57.709 24.9819 59.2364C24.8729 60.7635 24.4805 66.3954 24.4805 66.3954Z" fill="#ACACAC"/>
<path d="M83.4169 0.400558C83.0538 0.0246809 82.5041 -0.0980476 82.0183 0.0809726L0.853706 30.1904C0.357718 30.3745 0.0214412 30.8386 0.000986461 31.3671C-0.0194683 31.8957 0.279662 32.3848 0.760432 32.6065L15.3614 39.3445C16.4967 39.8693 17.3213 40.9144 17.5667 42.1404L22.2803 65.7114C22.389 66.2522 22.8249 66.6677 23.3708 66.7495C23.9077 66.8269 24.4536 66.561 24.7171 66.0751L32.1589 52.2554C32.3608 51.8802 32.7188 51.6328 33.1407 51.5778C33.5665 51.5228 33.9716 51.6679 34.2631 51.9785L52.7194 71.5883C52.9699 71.8535 53.3152 72 53.673 72C53.7511 72 53.8303 71.993 53.9083 71.9789C54.3456 71.899 54.7125 71.603 54.8825 71.1926L83.6828 1.80997C83.8821 1.32937 83.7774 0.775781 83.4169 0.400558Z" fill="#F2F2F2"/>
<path d="M82.8332 0.0595055L16.5645 40.2458C17.0573 40.7735 17.4216 41.4171 17.5666 42.1404L22.2802 65.7114C22.3888 66.2522 22.8248 66.6677 23.3707 66.7495C23.9076 66.8269 24.4535 66.561 24.7169 66.0751L32.1587 52.2554C32.2111 52.1582 32.2986 52.0966 32.3703 52.0178C32.376 51.989 32.3816 51.9603 32.3816 51.9603L83.4066 0.393C83.2448 0.228707 83.0454 0.120543 82.8332 0.0595055Z" fill="#DEDEDE"/>
</svg>
