<svg width="40" height="40" viewBox="0 0 40 40" fill="none" xmlns="http://www.w3.org/2000/svg">
<path d="M23.125 28.75C23.125 28.1319 22.9417 27.5277 22.5983 27.0138C22.255 26.4999 21.7669 26.0994 21.1959 25.8629C20.6249 25.6264 19.9965 25.5645 19.3903 25.685C18.7842 25.8056 18.2273 26.1033 17.7903 26.5403C17.3533 26.9773 17.0556 27.5342 16.935 28.1403C16.8145 28.7465 16.8764 29.3749 17.1129 29.9459C17.3494 30.5169 17.7499 31.005 18.2638 31.3483C18.7777 31.6917 19.3819 31.875 20 31.875C20.8285 31.8741 21.6228 31.5445 22.2087 30.9587C22.7945 30.3728 23.1241 29.5785 23.125 28.75ZM20 30.625C19.6292 30.625 19.2666 30.515 18.9583 30.309C18.65 30.103 18.4096 29.8101 18.2677 29.4675C18.1258 29.1249 18.0887 28.7479 18.161 28.3842C18.2334 28.0205 18.412 27.6864 18.6742 27.4242C18.9364 27.162 19.2705 26.9834 19.6342 26.911C19.9979 26.8387 20.3749 26.8758 20.7175 27.0177C21.0601 27.1596 21.353 27.4 21.559 27.7083C21.765 28.0166 21.875 28.3792 21.875 28.75C21.8744 29.2471 21.6767 29.7237 21.3252 30.0752C20.9737 30.4267 20.4971 30.6244 20 30.625Z" fill="#3ABEF0"/>
<path d="M22.6562 31.875H17.3438C16.5567 31.8759 15.8021 32.189 15.2455 32.7455C14.689 33.3021 14.3759 34.0567 14.375 34.8437V38.75C14.375 38.9158 14.4408 39.0747 14.5581 39.1919C14.6753 39.3092 14.8342 39.375 15 39.375H25C25.1658 39.375 25.3247 39.3092 25.4419 39.1919C25.5592 39.0747 25.625 38.9158 25.625 38.75V34.8437C25.6241 34.0567 25.311 33.3021 24.7545 32.7455C24.1979 32.189 23.4433 31.8759 22.6562 31.875ZM24.375 38.125H23.125V35.625C23.125 35.4592 23.0592 35.3003 22.9419 35.1831C22.8247 35.0658 22.6658 35 22.5 35C22.3342 35 22.1753 35.0658 22.0581 35.1831C21.9408 35.3003 21.875 35.4592 21.875 35.625V38.125H18.125V35.625C18.125 35.4592 18.0592 35.3003 17.9419 35.1831C17.8247 35.0658 17.6658 35 17.5 35C17.3342 35 17.1753 35.0658 17.0581 35.1831C16.9408 35.3003 16.875 35.4592 16.875 35.625V38.125H15.625V34.8437C15.6255 34.3881 15.8068 33.9512 16.129 33.629C16.4512 33.3068 16.8881 33.1255 17.3438 33.125H22.6562C23.1119 33.1255 23.5488 33.3068 23.871 33.629C24.1932 33.9512 24.3745 34.3881 24.375 34.8437V38.125Z" fill="#3ABEF0"/>
<path d="M23.125 3.75C23.125 3.13193 22.9417 2.52775 22.5983 2.01384C22.255 1.49994 21.7669 1.0994 21.1959 0.862878C20.6249 0.626354 19.9965 0.564469 19.3903 0.685047C18.7842 0.805626 18.2273 1.10325 17.7903 1.54029C17.3533 1.97733 17.0556 2.53415 16.935 3.14034C16.8145 3.74654 16.8764 4.37487 17.1129 4.94589C17.3494 5.51691 17.7499 6.00496 18.2638 6.34834C18.7777 6.69172 19.3819 6.875 20 6.875C20.8285 6.87407 21.6228 6.54453 22.2087 5.95868C22.7945 5.37283 23.1241 4.57852 23.125 3.75ZM20 5.625C19.6292 5.625 19.2666 5.51503 18.9583 5.30901C18.65 5.10298 18.4096 4.81014 18.2677 4.46753C18.1258 4.12492 18.0887 3.74792 18.161 3.38421C18.2334 3.02049 18.412 2.6864 18.6742 2.42418C18.9364 2.16195 19.2705 1.98338 19.6342 1.91103C19.9979 1.83868 20.3749 1.87581 20.7175 2.01773C21.0601 2.15964 21.353 2.39996 21.559 2.70831C21.765 3.01665 21.875 3.37916 21.875 3.75C21.8744 4.2471 21.6767 4.72368 21.3252 5.07519C20.9737 5.42669 20.4971 5.62442 20 5.625Z" fill="#3ABEF0"/>
<path d="M22.6562 6.875H17.3438C16.5567 6.87589 15.8021 7.18895 15.2455 7.74551C14.689 8.30206 14.3759 9.05666 14.375 9.84375V13.75C14.375 13.9158 14.4408 14.0747 14.5581 14.1919C14.6753 14.3092 14.8342 14.375 15 14.375H25C25.1658 14.375 25.3247 14.3092 25.4419 14.1919C25.5592 14.0747 25.625 13.9158 25.625 13.75V9.84375C25.6241 9.05666 25.311 8.30206 24.7545 7.74551C24.1979 7.18895 23.4433 6.87589 22.6562 6.875ZM24.375 13.125H23.125V10.625C23.125 10.4592 23.0592 10.3003 22.9419 10.1831C22.8247 10.0658 22.6658 10 22.5 10C22.3342 10 22.1753 10.0658 22.0581 10.1831C21.9408 10.3003 21.875 10.4592 21.875 10.625V13.125H18.125V10.625C18.125 10.4592 18.0592 10.3003 17.9419 10.1831C17.8247 10.0658 17.6658 10 17.5 10C17.3342 10 17.1753 10.0658 17.0581 10.1831C16.9408 10.3003 16.875 10.4592 16.875 10.625V13.125H15.625V9.84375C15.6255 9.38807 15.8068 8.9512 16.129 8.62898C16.4512 8.30677 16.8881 8.12552 17.3438 8.125H22.6562C23.1119 8.12552 23.5488 8.30677 23.871 8.62898C24.1932 8.9512 24.3745 9.38807 24.375 9.84375V13.125Z" fill="#3ABEF0"/>
<path d="M9.375 16.25C9.375 15.6319 9.19172 15.0277 8.84834 14.5138C8.50496 13.9999 8.01691 13.5994 7.44589 13.3629C6.87487 13.1264 6.24654 13.0645 5.64034 13.185C5.03415 13.3056 4.47733 13.6033 4.04029 14.0403C3.60325 14.4773 3.30563 15.0342 3.18505 15.6403C3.06447 16.2465 3.12635 16.8749 3.36288 17.4459C3.5994 18.0169 3.99994 18.505 4.51384 18.8483C5.02775 19.1917 5.63193 19.375 6.25 19.375C7.07852 19.3741 7.87283 19.0445 8.45868 18.4587C9.04453 17.8728 9.37407 17.0785 9.375 16.25ZM6.25 18.125C5.87916 18.125 5.51665 18.015 5.20831 17.809C4.89996 17.603 4.65964 17.3101 4.51773 16.9675C4.37581 16.6249 4.33868 16.2479 4.41103 15.8842C4.48338 15.5205 4.66195 15.1864 4.92418 14.9242C5.1864 14.662 5.52049 14.4834 5.88421 14.411C6.24792 14.3387 6.62492 14.3758 6.96753 14.5177C7.31014 14.6596 7.60298 14.9 7.80901 15.2083C8.01503 15.5167 8.125 15.8792 8.125 16.25C8.12442 16.7471 7.92669 17.2237 7.57519 17.5752C7.22368 17.9267 6.7471 18.1244 6.25 18.125Z" fill="#3ABEF0"/>
<path d="M11.25 26.875C11.4158 26.875 11.5747 26.8092 11.6919 26.6919C11.8092 26.5747 11.875 26.4158 11.875 26.25V22.3438C11.8741 21.5567 11.561 20.8021 11.0045 20.2455C10.4479 19.689 9.69334 19.3759 8.90625 19.375H3.59375C2.80666 19.3759 2.05206 19.689 1.49551 20.2455C0.938953 20.8021 0.625889 21.5567 0.625 22.3438V26.25C0.625 26.4158 0.690848 26.5747 0.808058 26.6919C0.925268 26.8092 1.08424 26.875 1.25 26.875H11.25ZM1.875 22.3438C1.87552 21.8881 2.05676 21.4512 2.37898 21.129C2.7012 20.8068 3.13807 20.6255 3.59375 20.625H8.90625C9.36193 20.6255 9.7988 20.8068 10.121 21.129C10.4432 21.4512 10.6245 21.8881 10.625 22.3438V25.625H9.375V23.125C9.375 22.9592 9.30915 22.8003 9.19194 22.6831C9.07473 22.5658 8.91576 22.5 8.75 22.5C8.58424 22.5 8.42527 22.5658 8.30806 22.6831C8.19085 22.8003 8.125 22.9592 8.125 23.125V25.625H4.375V23.125C4.375 22.9592 4.30915 22.8003 4.19194 22.6831C4.07473 22.5658 3.91576 22.5 3.75 22.5C3.58424 22.5 3.42527 22.5658 3.30806 22.6831C3.19085 22.8003 3.125 22.9592 3.125 23.125V25.625H1.875V22.3438Z" fill="#3ABEF0"/>
<path d="M36.875 16.25C36.875 15.6319 36.6917 15.0277 36.3483 14.5138C36.005 13.9999 35.5169 13.5994 34.9459 13.3629C34.3749 13.1264 33.7465 13.0645 33.1403 13.185C32.5341 13.3056 31.9773 13.6033 31.5403 14.0403C31.1033 14.4773 30.8056 15.0342 30.685 15.6403C30.5645 16.2465 30.6264 16.8749 30.8629 17.4459C31.0994 18.0169 31.4999 18.505 32.0138 18.8483C32.5277 19.1917 33.1319 19.375 33.75 19.375C34.5785 19.3741 35.3728 19.0445 35.9587 18.4587C36.5445 17.8728 36.8741 17.0785 36.875 16.25ZM33.75 18.125C33.3792 18.125 33.0166 18.015 32.7083 17.809C32.4 17.603 32.1596 17.3101 32.0177 16.9675C31.8758 16.6249 31.8387 16.2479 31.911 15.8842C31.9834 15.5205 32.162 15.1864 32.4242 14.9242C32.6864 14.662 33.0205 14.4834 33.3842 14.411C33.7479 14.3387 34.1249 14.3758 34.4675 14.5177C34.8101 14.6596 35.103 14.9 35.309 15.2083C35.515 15.5167 35.625 15.8792 35.625 16.25C35.6244 16.7471 35.4267 17.2237 35.0752 17.5752C34.7237 17.9267 34.2471 18.1244 33.75 18.125Z" fill="#3ABEF0"/>
<path d="M36.4062 19.375H31.0938C30.3067 19.3759 29.5521 19.689 28.9955 20.2455C28.439 20.8021 28.1259 21.5567 28.125 22.3438V26.25C28.125 26.4158 28.1908 26.5747 28.3081 26.6919C28.4253 26.8092 28.5842 26.875 28.75 26.875H38.75C38.9158 26.875 39.0747 26.8092 39.1919 26.6919C39.3092 26.5747 39.375 26.4158 39.375 26.25V22.3438C39.3741 21.5567 39.061 20.8021 38.5045 20.2455C37.9479 19.689 37.1933 19.3759 36.4062 19.375ZM38.125 25.625H36.875V23.125C36.875 22.9592 36.8092 22.8003 36.6919 22.6831C36.5747 22.5658 36.4158 22.5 36.25 22.5C36.0842 22.5 35.9253 22.5658 35.8081 22.6831C35.6908 22.8003 35.625 22.9592 35.625 23.125V25.625H31.875V23.125C31.875 22.9592 31.8092 22.8003 31.6919 22.6831C31.5747 22.5658 31.4158 22.5 31.25 22.5C31.0842 22.5 30.9253 22.5658 30.8081 22.6831C30.6908 22.8003 30.625 22.9592 30.625 23.125V25.625H29.375V22.3438C29.3755 21.8881 29.5568 21.4512 29.879 21.129C30.2012 20.8068 30.6381 20.6255 31.0938 20.625H36.4062C36.8619 20.6255 37.2988 20.8068 37.621 21.129C37.9432 21.4512 38.1245 21.8881 38.125 22.3438V25.625Z" fill="#3ABEF0"/>
<path d="M12.2005 32.8155C10.5704 31.8227 9.14463 30.5282 7.99967 29.0012C7.95037 28.9355 7.88862 28.8802 7.81795 28.8385C7.74729 28.7967 7.66908 28.7692 7.5878 28.7577C7.50653 28.7461 7.42377 28.7507 7.34426 28.7711C7.26475 28.7916 7.19004 28.8275 7.1244 28.8768C7.05876 28.9261 7.00347 28.9878 6.96169 29.0585C6.91992 29.1291 6.89247 29.2073 6.88092 29.2886C6.86936 29.3699 6.87393 29.4527 6.89436 29.5322C6.91479 29.6117 6.95068 29.6864 6.99998 29.752C8.23992 31.4057 9.78393 32.8076 11.5492 33.8826C11.6907 33.969 11.8607 33.9955 12.0218 33.9565C12.183 33.9175 12.322 33.816 12.4083 33.6745C12.4946 33.533 12.5212 33.363 12.4821 33.2019C12.4431 33.0408 12.3417 32.9018 12.2001 32.8155H12.2005Z" fill="#3ABEF0"/>
<path d="M32.8765 28.875C32.744 28.7755 32.5773 28.7327 32.4133 28.756C32.2492 28.7793 32.1011 28.8668 32.0015 28.9993C30.8564 30.527 29.4302 31.8221 27.7996 32.8151C27.6581 32.9014 27.5567 33.0404 27.5176 33.2015C27.4786 33.3626 27.5052 33.5326 27.5915 33.6742C27.6778 33.8157 27.8168 33.9171 27.9779 33.9561C28.139 33.9952 28.309 33.9686 28.4506 33.8823C30.2164 32.8069 31.7608 31.4044 33.0009 29.7501C33.0502 29.6845 33.0861 29.6098 33.1065 29.5303C33.1269 29.4508 33.1315 29.368 33.12 29.2868C33.1084 29.2055 33.0809 29.1273 33.0392 29.0567C32.9974 28.986 32.9421 28.9243 32.8765 28.875Z" fill="#3ABEF0"/>
<path d="M25.3999 6.00111C28.0256 7.01574 30.3131 8.74807 32.0015 11.0004C32.101 11.1329 32.2491 11.2205 32.4133 11.2438C32.5774 11.2671 32.744 11.2243 32.8766 11.1247C33.0091 11.0252 33.0967 10.8771 33.12 10.7129C33.1433 10.5488 33.1005 10.3822 33.0009 10.2496C31.172 7.81017 28.6941 5.93396 25.8501 4.8351C25.7733 4.80428 25.6911 4.78903 25.6084 4.79023C25.5256 4.79142 25.4439 4.80904 25.3681 4.84207C25.2922 4.87509 25.2236 4.92286 25.1663 4.9826C25.109 5.04233 25.0642 5.11285 25.0344 5.19006C25.0046 5.26727 24.9904 5.34963 24.9927 5.43237C24.9949 5.5151 25.0136 5.59655 25.0476 5.67201C25.0817 5.74746 25.1303 5.8154 25.1908 5.8719C25.2513 5.92839 25.3224 5.97232 25.4 6.00111H25.3999Z" fill="#3ABEF0"/>
<path d="M7.1235 11.1249C7.25603 11.2245 7.42265 11.2673 7.58674 11.244C7.75083 11.2207 7.89894 11.1332 7.9985 11.0007C9.68686 8.74831 11.9744 7.01598 14.6001 6.00136C14.6777 5.97256 14.7488 5.92864 14.8092 5.87214C14.8697 5.81565 14.9184 5.7477 14.9524 5.67225C14.9864 5.5968 15.0051 5.51534 15.0074 5.43261C15.0097 5.34988 14.9955 5.26752 14.9657 5.19031C14.9359 5.1131 14.891 5.04258 14.8337 4.98284C14.7765 4.9231 14.7079 4.87533 14.632 4.84231C14.5561 4.80929 14.4744 4.79167 14.3917 4.79047C14.3089 4.78927 14.2267 4.80453 14.1499 4.83534C11.3059 5.93422 8.82804 7.81046 6.99913 10.2499C6.89961 10.3825 6.8568 10.5491 6.88012 10.7132C6.90345 10.8773 6.99099 11.0254 7.1235 11.1249Z" fill="#3ABEF0"/>
<path d="M20 22.5C20.4945 22.5 20.9778 22.3534 21.3889 22.0787C21.8001 21.804 22.1205 21.4135 22.3097 20.9567C22.4989 20.4999 22.5484 19.9972 22.452 19.5123C22.3555 19.0273 22.1174 18.5819 21.7678 18.2322C21.4181 17.8826 20.9727 17.6445 20.4877 17.548C20.0028 17.4516 19.5001 17.5011 19.0433 17.6903C18.5865 17.8795 18.196 18.2 17.9213 18.6111C17.6466 19.0222 17.5 19.5056 17.5 20C17.5007 20.6628 17.7644 21.2983 18.2331 21.767C18.7017 22.2356 19.3372 22.4993 20 22.5ZM20 18.75C20.2472 18.75 20.4889 18.8233 20.6945 18.9607C20.9 19.098 21.0602 19.2932 21.1549 19.5217C21.2495 19.7501 21.2742 20.0014 21.226 20.2439C21.1778 20.4864 21.0587 20.7091 20.8839 20.8839C20.7091 21.0587 20.4863 21.1778 20.2439 21.226C20.0014 21.2742 19.7501 21.2495 19.5217 21.1549C19.2932 21.0603 19.098 20.9 18.9607 20.6945C18.8233 20.4889 18.75 20.2472 18.75 20C18.7504 19.6686 18.8822 19.3509 19.1166 19.1166C19.3509 18.8822 19.6686 18.7504 20 18.75Z" fill="#3ABEF0"/>
</svg>
