<svg width="20" height="20" viewBox="0 0 20 20" fill="none" xmlns="http://www.w3.org/2000/svg">
<path d="M10.0003 0C4.47672 0 0 4.47537 0 10.0003C0 15.5226 4.47672 20 10.0003 20C15.5219 20 19.9993 15.5226 19.9993 10.0003C19.9993 4.47537 15.5226 0 10.0003 0ZM10.0003 18.3687C5.37532 18.3687 1.62993 14.6227 1.62993 9.99966C1.62993 5.37599 5.37532 1.62858 10.0003 1.62858C14.6213 1.62858 18.3694 5.37667 18.3694 9.99966C18.3701 14.6227 14.6213 18.3687 10.0003 18.3687Z" fill="#5B5B5B" fill-opacity="0.5"/>
<path d="M11.397 7.54556H8.58613V7.5503H7.53992V9.1843H8.58613V15.0201H7.47559V16.5816H8.58613V16.5925H11.397V16.5816H12.3166V15.0201H11.397V7.54556Z" fill="#5B5B5B" fill-opacity="0.5"/>
<path d="M9.97198 6.4358C10.9166 6.4358 11.4888 5.80739 11.4888 5.02933C11.4705 4.2357 10.9159 3.62625 10.0099 3.62625C9.10521 3.62625 8.5127 4.23502 8.5127 5.02933C8.51202 5.80739 9.08558 6.4358 9.97198 6.4358Z" fill="#5B5B5B" fill-opacity="0.5"/>
</svg>