<svg width="97" height="75" viewBox="0 0 97 75" fill="none" xmlns="http://www.w3.org/2000/svg">
<path d="M41.8145 35.9917L29.8975 3.25009L38.8273 0L59.6741 29.4931L41.8145 35.9917Z" fill="#DEDEDE"/>
<path d="M5.41699 42.4982L76.9729 16.4547C78.7816 15.7958 80.7915 15.9954 82.4356 16.9964L88.4955 20.6868C91.7836 19.491 95.4201 21.1857 96.616 24.4738C97.8134 27.7619 96.1186 31.3969 92.8289 32.5943L42.226 51.0115L8.66708 51.428L5.41699 42.4982Z" fill="#F2F2F2"/>
<path d="M5.95375 25.4481L0 27.6148L5.41682 42.4984L17.3243 38.1649L5.95375 25.4481Z" fill="#DEDEDE"/>
<path d="M43.9824 41.9456L55.8978 74.6888L64.8308 71.4388L61.8405 35.4454L43.9824 41.9456Z" fill="#DEDEDE"/>
<path d="M78.5059 20.9433L85.95 18.2349L87.0334 21.2126L79.5892 23.921L78.5059 20.9433Z" fill="#ACACAC"/>
<path d="M68.085 24.7532L71.0603 23.6707L72.1428 26.646L69.1675 27.7286L68.085 24.7532Z" fill="#ACACAC"/>
<path d="M62.1299 26.9205L65.1052 25.838L66.1877 28.8133L63.2124 29.8959L62.1299 26.9205Z" fill="#ACACAC"/>
<path d="M56.1777 29.0892L59.1531 28.0067L60.2356 30.9821L57.2603 32.0646L56.1777 29.0892Z" fill="#ACACAC"/>
<path d="M50.2207 31.2583L53.196 30.1757L54.2786 33.1511L51.3032 34.2336L50.2207 31.2583Z" fill="#ACACAC"/>
<path d="M44.2666 33.4258L47.2419 32.3433L48.3245 35.3187L45.3491 36.4012L44.2666 33.4258Z" fill="#ACACAC"/>
<path d="M38.3115 35.5931L41.2869 34.5106L42.3694 37.486L39.394 38.5685L38.3115 35.5931Z" fill="#ACACAC"/>
<path d="M32.3574 37.7621L35.3328 36.6796L36.4153 39.655L33.4399 40.7375L32.3574 37.7621Z" fill="#ACACAC"/>
<path d="M26.3896 39.95L29.3665 38.8669L30.4495 41.8438L27.4727 42.9268L26.3896 39.95Z" fill="#ACACAC"/>
<path d="M20.4316 42.1159L23.4085 41.0328L24.4915 44.0096L21.5147 45.0927L20.4316 42.1159Z" fill="#ACACAC"/>
</svg>
