<svg width="40" height="40" viewBox="0 0 40 40" fill="none" xmlns="http://www.w3.org/2000/svg">
<path d="M25.5684 21.5178H27.9122V23.8616H25.5684V21.5178Z" fill="#3ABEF0"/>
<path d="M20.173 21.5178H22.5168V23.8616H20.173V21.5178Z" fill="#3ABEF0"/>
<path d="M14.7775 21.5178H17.1213V23.8616H14.7775V21.5178Z" fill="#3ABEF0"/>
<path d="M40 9.24109C40 4.14555 35.8545 0 30.7589 0C27.0412 0 23.8297 2.20703 22.3645 5.37945H8.14984L7.61188 0H0V2.34375H5.49078L5.82719 5.70734L7.96781 27.114C6.46234 27.6414 5.37945 29.0757 5.37945 30.7589C5.37945 32.8882 7.1118 34.6205 9.24109 34.6205H11.0542C10.8541 35.0866 10.743 35.5997 10.743 36.1384C10.743 38.2677 12.4752 40 14.6045 40C16.7338 40 18.4662 38.2677 18.4662 36.1384C18.4662 35.5998 18.355 35.0867 18.1549 34.6205H24.535C24.3349 35.0866 24.2237 35.5997 24.2237 36.1384C24.2237 38.2677 25.9561 40 28.0854 40C30.2147 40 31.947 38.2677 31.947 36.1384C31.947 35.5998 31.8359 35.0867 31.6358 34.6205H34.509V32.2767H9.24109C8.40414 32.2767 7.7232 31.5959 7.7232 30.7589C7.7232 29.922 8.40414 29.241 9.24109 29.241H34.5092L35.7305 17.0277C38.2962 15.384 40 12.5078 40 9.24109ZM14.6045 37.6562C13.7675 37.6562 13.0866 36.9753 13.0866 36.1384C13.0866 35.3014 13.7675 34.6205 14.6045 34.6205C15.4414 34.6205 16.1223 35.3014 16.1223 36.1384C16.1223 36.9753 15.4414 37.6562 14.6045 37.6562ZM28.0852 37.6562C27.2483 37.6562 26.5673 36.9753 26.5673 36.1384C26.5673 35.3014 27.2483 34.6205 28.0852 34.6205C28.9222 34.6205 29.6031 35.3014 29.6031 36.1384C29.6031 36.9753 28.9222 37.6562 28.0852 37.6562ZM30.7589 2.34375C34.5622 2.34375 37.6562 5.43789 37.6562 9.24109C37.6562 13.0443 34.5622 16.1384 30.7589 16.1384C26.9557 16.1384 23.8616 13.0443 23.8616 9.24109C23.8616 5.43789 26.9557 2.34375 30.7589 2.34375ZM32.388 26.8973H10.3016L8.38422 7.7232H21.6432C21.5612 8.21727 21.5179 8.72414 21.5179 9.24109C21.5179 14.3366 25.6634 18.4822 30.7589 18.4822C31.6269 18.4822 32.4671 18.3617 33.2641 18.137L32.388 26.8973Z" fill="#3ABEF0"/>
<path d="M35.2442 7.85306L33.5869 6.1958L29.982 9.80064L27.9309 7.74963L26.2737 9.40689L29.982 13.1152L35.2442 7.85306Z" fill="#3ABEF0"/>
</svg>
