<svg width="282" height="80" viewBox="0 0 282 80" fill="none" xmlns="http://www.w3.org/2000/svg">
<rect width="282" height="80" rx="12" fill="#3ABEF0"/>
<path d="M36.671 18.6924C35.6686 18.0447 34.4646 17.8489 33.3353 18.1155L53.181 37.9613L59.6131 31.5292L36.671 18.6924Z" fill="white"/>
<path d="M30.8721 19.7288C30.3186 20.4646 30 21.3682 30 22.324V57.675C30 58.6309 30.3187 59.5344 30.8721 60.2703L51.1428 39.9996L30.8721 19.7288Z" fill="white"/>
<path d="M68.0076 36.2263L62.2269 32.9918L55.2192 39.9995L62.2272 47.0075L68.0085 43.7729C69.3936 42.9968 70.2204 41.5864 70.2204 39.9995C70.2204 38.4126 69.3936 37.0023 68.0076 36.2263Z" fill="white"/>
<path d="M53.181 42.0377L33.3365 61.8822C33.6618 61.9587 33.9929 62 34.324 62C35.1423 62 35.9578 61.7673 36.671 61.3065L59.6133 48.4698L53.181 42.0377Z" fill="white"/>
<path d="M87.3477 28V17.3359H90.3286C91.2026 17.3359 91.9863 17.5361 92.6797 17.9365C93.373 18.332 93.9126 18.9009 94.2983 19.6431C94.689 20.3853 94.8843 21.23 94.8843 22.1772V23.1587C94.8843 24.1108 94.6914 24.9556 94.3057 25.6929C93.9199 26.4302 93.3755 26.999 92.6724 27.3994C91.9741 27.7998 91.1709 28 90.2627 28H87.3477ZM88.2485 18.105V27.2383H90.27C91.3931 27.2383 92.2939 26.8672 92.9727 26.125C93.6514 25.3779 93.9907 24.3696 93.9907 23.1001V22.1626C93.9907 20.937 93.6562 19.9556 92.9873 19.2183C92.3184 18.481 91.437 18.1099 90.3433 18.105H88.2485ZM96.4883 23.9204C96.4883 23.1587 96.6348 22.4727 96.9277 21.8623C97.2256 21.252 97.6431 20.7783 98.1802 20.4414C98.7222 20.0996 99.335 19.9287 100.019 19.9287C101.073 19.9287 101.928 20.2998 102.582 21.042C103.236 21.7793 103.563 22.7583 103.563 23.979V24.1621C103.563 24.9287 103.415 25.6196 103.117 26.2349C102.824 26.8452 102.409 27.3164 101.872 27.6484C101.334 27.9805 100.722 28.1465 100.033 28.1465C98.9834 28.1465 98.1289 27.7778 97.4697 27.0405C96.8154 26.2983 96.4883 25.3169 96.4883 24.0962V23.9204ZM97.3672 24.1621C97.3672 25.1094 97.6113 25.8882 98.0996 26.4985C98.5928 27.104 99.2373 27.4067 100.033 27.4067C100.824 27.4067 101.464 27.104 101.952 26.4985C102.445 25.8882 102.692 25.085 102.692 24.0889V23.9204C102.692 23.3149 102.58 22.7607 102.355 22.2578C102.13 21.7549 101.815 21.3667 101.41 21.0933C101.005 20.8149 100.541 20.6758 100.019 20.6758C99.2373 20.6758 98.6001 20.9834 98.1069 21.5986C97.6138 22.209 97.3672 23.0098 97.3672 24.001V24.1621ZM107.277 26.1763L107.409 26.8574L107.584 26.1396L109.489 20.0752H110.236L112.118 26.0884L112.323 26.9233L112.492 26.1543L114.118 20.0752H115.026L112.719 28H111.972L109.936 21.7158L109.84 21.2837L109.745 21.7231L107.746 28H106.999L104.699 20.0752H105.6L107.277 26.1763ZM117.523 20.0752L117.553 21.4302C117.851 20.9419 118.222 20.5708 118.666 20.3169C119.11 20.0581 119.601 19.9287 120.138 19.9287C120.988 19.9287 121.62 20.168 122.035 20.6465C122.45 21.125 122.66 21.8428 122.665 22.7998V28H121.793V22.7925C121.789 22.0845 121.637 21.5571 121.339 21.2104C121.046 20.8638 120.575 20.6904 119.926 20.6904C119.384 20.6904 118.903 20.8613 118.483 21.2031C118.068 21.54 117.76 21.9966 117.56 22.5728V28H116.688V20.0752H117.523ZM125.917 28H125.038V16.75H125.917V28ZM127.821 23.9204C127.821 23.1587 127.968 22.4727 128.261 21.8623C128.559 21.252 128.976 20.7783 129.513 20.4414C130.055 20.0996 130.668 19.9287 131.352 19.9287C132.406 19.9287 133.261 20.2998 133.915 21.042C134.569 21.7793 134.896 22.7583 134.896 23.979V24.1621C134.896 24.9287 134.748 25.6196 134.45 26.2349C134.157 26.8452 133.742 27.3164 133.205 27.6484C132.667 27.9805 132.055 28.1465 131.366 28.1465C130.316 28.1465 129.462 27.7778 128.803 27.0405C128.148 26.2983 127.821 25.3169 127.821 24.0962V23.9204ZM128.7 24.1621C128.7 25.1094 128.944 25.8882 129.433 26.4985C129.926 27.104 130.57 27.4067 131.366 27.4067C132.157 27.4067 132.797 27.104 133.285 26.4985C133.778 25.8882 134.025 25.085 134.025 24.0889V23.9204C134.025 23.3149 133.913 22.7607 133.688 22.2578C133.463 21.7549 133.148 21.3667 132.743 21.0933C132.338 20.8149 131.874 20.6758 131.352 20.6758C130.57 20.6758 129.933 20.9834 129.44 21.5986C128.947 22.209 128.7 23.0098 128.7 24.001V24.1621ZM141.715 28C141.627 27.751 141.571 27.3823 141.547 26.894C141.239 27.2944 140.846 27.6045 140.368 27.8242C139.894 28.0391 139.391 28.1465 138.859 28.1465C138.097 28.1465 137.479 27.9341 137.006 27.5093C136.537 27.0845 136.303 26.5474 136.303 25.8979C136.303 25.1265 136.623 24.5161 137.262 24.0669C137.907 23.6177 138.803 23.3931 139.95 23.3931H141.54V22.4922C141.54 21.9258 141.364 21.4814 141.012 21.1592C140.666 20.832 140.158 20.6685 139.489 20.6685C138.878 20.6685 138.373 20.8247 137.973 21.1372C137.572 21.4497 137.372 21.8257 137.372 22.2651L136.493 22.2578C136.493 21.6279 136.786 21.0835 137.372 20.6245C137.958 20.1606 138.678 19.9287 139.533 19.9287C140.417 19.9287 141.112 20.1509 141.62 20.5952C142.133 21.0347 142.396 21.6499 142.411 22.4409V26.1909C142.411 26.9575 142.492 27.5312 142.653 27.9121V28H141.715ZM138.961 27.3701C139.547 27.3701 140.07 27.2285 140.529 26.9453C140.993 26.6621 141.33 26.2837 141.54 25.8101V24.0669H139.972C139.098 24.0767 138.415 24.2378 137.921 24.5503C137.428 24.8579 137.182 25.2827 137.182 25.8247C137.182 26.269 137.345 26.6377 137.672 26.9307C138.004 27.2236 138.434 27.3701 138.961 27.3701ZM144.403 23.9644C144.403 22.7339 144.677 21.7549 145.224 21.0273C145.775 20.2949 146.522 19.9287 147.465 19.9287C148.534 19.9287 149.35 20.3511 149.911 21.1958V16.75H150.783V28H149.962L149.926 26.9453C149.364 27.7461 148.539 28.1465 147.45 28.1465C146.537 28.1465 145.8 27.7803 145.238 27.0479C144.682 26.3105 144.403 25.3169 144.403 24.0669V23.9644ZM145.29 24.1182C145.29 25.1289 145.492 25.9272 145.897 26.5132C146.303 27.0942 146.874 27.3848 147.611 27.3848C148.69 27.3848 149.457 26.9087 149.911 25.9565V22.2358C149.457 21.2056 148.695 20.6904 147.626 20.6904C146.889 20.6904 146.315 20.981 145.905 21.562C145.495 22.1382 145.29 22.9902 145.29 24.1182ZM157.719 28H156.84V20.0752H157.719V28ZM156.686 17.7827C156.686 17.6167 156.74 17.4775 156.847 17.3652C156.955 17.248 157.101 17.1895 157.287 17.1895C157.472 17.1895 157.619 17.248 157.726 17.3652C157.838 17.4775 157.895 17.6167 157.895 17.7827C157.895 17.9487 157.838 18.0879 157.726 18.2002C157.619 18.3125 157.472 18.3687 157.287 18.3687C157.101 18.3687 156.955 18.3125 156.847 18.2002C156.74 18.0879 156.686 17.9487 156.686 17.7827ZM161.469 18.0464V20.0752H163.109V20.793H161.469V26.0737C161.469 26.5132 161.547 26.8403 161.703 27.0552C161.864 27.27 162.13 27.3774 162.501 27.3774C162.648 27.3774 162.885 27.353 163.212 27.3042L163.249 28.022C163.019 28.105 162.707 28.1465 162.311 28.1465C161.71 28.1465 161.273 27.9731 161 27.6265C160.727 27.2749 160.59 26.7598 160.59 26.0811V20.793H159.132V20.0752H160.59V18.0464H161.469ZM169.203 28V20.793H167.892V20.0752H169.203V19.1157C169.203 18.3052 169.408 17.6826 169.818 17.248C170.233 16.8135 170.81 16.5962 171.547 16.5962C171.879 16.5962 172.189 16.6377 172.477 16.7207L172.411 17.4531C172.167 17.3945 171.901 17.3652 171.613 17.3652C171.129 17.3652 170.753 17.5166 170.485 17.8193C170.216 18.1172 170.082 18.542 170.082 19.0938V20.0752H171.972V20.793H170.082V28H169.203ZM177.201 20.8223C177.016 20.7881 176.818 20.771 176.608 20.771C176.061 20.771 175.597 20.9248 175.216 21.2324C174.84 21.5352 174.572 21.9771 174.411 22.5581V28H173.539V20.0752H174.396L174.411 21.335C174.875 20.3975 175.619 19.9287 176.645 19.9287C176.889 19.9287 177.082 19.9604 177.223 20.0239L177.201 20.8223ZM177.963 23.9204C177.963 23.1587 178.109 22.4727 178.402 21.8623C178.7 21.252 179.118 20.7783 179.655 20.4414C180.197 20.0996 180.81 19.9287 181.493 19.9287C182.548 19.9287 183.402 20.2998 184.057 21.042C184.711 21.7793 185.038 22.7583 185.038 23.979V24.1621C185.038 24.9287 184.889 25.6196 184.591 26.2349C184.298 26.8452 183.883 27.3164 183.346 27.6484C182.809 27.9805 182.196 28.1465 181.508 28.1465C180.458 28.1465 179.604 27.7778 178.944 27.0405C178.29 26.2983 177.963 25.3169 177.963 24.0962V23.9204ZM178.842 24.1621C178.842 25.1094 179.086 25.8882 179.574 26.4985C180.067 27.104 180.712 27.4067 181.508 27.4067C182.299 27.4067 182.938 27.104 183.427 26.4985C183.92 25.8882 184.167 25.085 184.167 24.0889V23.9204C184.167 23.3149 184.054 22.7607 183.83 22.2578C183.605 21.7549 183.29 21.3667 182.885 21.0933C182.479 20.8149 182.016 20.6758 181.493 20.6758C180.712 20.6758 180.075 20.9834 179.582 21.5986C179.088 22.209 178.842 23.0098 178.842 24.001V24.1621ZM187.653 20.0752L187.682 21.3643C187.975 20.8857 188.341 20.5269 188.781 20.2876C189.22 20.0483 189.708 19.9287 190.246 19.9287C191.496 19.9287 192.289 20.4414 192.626 21.4668C192.909 20.9736 193.288 20.5952 193.761 20.3315C194.235 20.063 194.757 19.9287 195.329 19.9287C197.028 19.9287 197.895 20.8564 197.929 22.7119V28H197.05V22.7778C197.045 22.0698 196.891 21.5449 196.588 21.2031C196.291 20.8613 195.802 20.6904 195.124 20.6904C194.494 20.7002 193.961 20.9053 193.527 21.3057C193.092 21.7012 192.851 22.1846 192.802 22.7559V28H191.923V22.7119C191.918 22.0332 191.757 21.5278 191.439 21.1958C191.127 20.8589 190.644 20.6904 189.989 20.6904C189.438 20.6904 188.964 20.8491 188.568 21.1665C188.173 21.479 187.88 21.9453 187.689 22.5654V28H186.811V20.0752H187.653Z" fill="white"/>
<path d="M103.828 43.7891C103.828 46.3906 102.938 48.3945 101.156 49.8008C99.3867 51.1953 96.8496 51.8926 93.5449 51.8926H90.5215V62H87.5332V36.3008H94.1953C100.617 36.3008 103.828 38.7969 103.828 43.7891ZM90.5215 49.3262H93.2109C95.8594 49.3262 97.7754 48.8984 98.959 48.043C100.143 47.1875 100.734 45.8164 100.734 43.9297C100.734 42.2305 100.178 40.9648 99.0645 40.1328C97.9512 39.3008 96.2168 38.8848 93.8613 38.8848H90.5215V49.3262ZM111.703 62H108.785V34.6484H111.703V62ZM129.738 62L129.158 59.2578H129.018C128.057 60.4648 127.096 61.2852 126.135 61.7188C125.186 62.1406 123.996 62.3516 122.566 62.3516C120.656 62.3516 119.156 61.8594 118.066 60.875C116.988 59.8906 116.449 58.4902 116.449 56.6738C116.449 52.7832 119.561 50.7441 125.783 50.5566L129.053 50.4512V49.2559C129.053 47.7441 128.725 46.6309 128.068 45.916C127.424 45.1895 126.387 44.8262 124.957 44.8262C123.352 44.8262 121.535 45.3184 119.508 46.3027L118.611 44.0703C119.561 43.5547 120.598 43.1504 121.723 42.8574C122.859 42.5645 123.996 42.418 125.133 42.418C127.43 42.418 129.129 42.9277 130.23 43.9473C131.344 44.9668 131.9 46.6016 131.9 48.8516V62H129.738ZM123.146 59.9434C124.963 59.9434 126.387 59.4453 127.418 58.4492C128.461 57.4531 128.982 56.0586 128.982 54.2656V52.5254L126.064 52.6484C123.744 52.7305 122.068 53.0938 121.037 53.7383C120.018 54.3711 119.508 55.3613 119.508 56.709C119.508 57.7637 119.824 58.5664 120.457 59.1172C121.102 59.668 121.998 59.9434 123.146 59.9434ZM134.871 42.7344H138L142.219 53.7207C143.145 56.2285 143.719 58.0391 143.941 59.1523H144.082C144.234 58.5547 144.551 57.5352 145.031 56.0938C145.523 54.6406 147.117 50.1875 149.812 42.7344H152.941L144.662 64.6719C143.842 66.8398 142.881 68.375 141.779 69.2773C140.689 70.1914 139.348 70.6484 137.754 70.6484C136.863 70.6484 135.984 70.5488 135.117 70.3496V68.0117C135.762 68.1523 136.482 68.2227 137.279 68.2227C139.283 68.2227 140.713 67.0977 141.568 64.8477L142.641 62.1055L134.871 42.7344ZM180.363 55.1621C180.363 57.4238 179.543 59.1875 177.902 60.4531C176.262 61.7188 174.035 62.3516 171.223 62.3516C168.176 62.3516 165.832 61.959 164.191 61.1738V58.291C165.246 58.7363 166.395 59.0879 167.637 59.3457C168.879 59.6035 170.109 59.7324 171.328 59.7324C173.32 59.7324 174.82 59.3574 175.828 58.6074C176.836 57.8457 177.34 56.791 177.34 55.4434C177.34 54.5527 177.158 53.8262 176.795 53.2637C176.443 52.6895 175.846 52.1621 175.002 51.6816C174.17 51.2012 172.898 50.6562 171.188 50.0469C168.797 49.1914 167.086 48.1777 166.055 47.0059C165.035 45.834 164.525 44.3047 164.525 42.418C164.525 40.4375 165.27 38.8613 166.758 37.6895C168.246 36.5176 170.215 35.9316 172.664 35.9316C175.219 35.9316 177.568 36.4004 179.713 37.3379L178.781 39.9395C176.66 39.0488 174.598 38.6035 172.594 38.6035C171.012 38.6035 169.775 38.9434 168.885 39.623C167.994 40.3027 167.549 41.2461 167.549 42.4531C167.549 43.3438 167.713 44.0762 168.041 44.6504C168.369 45.2129 168.92 45.7344 169.693 46.2148C170.479 46.6836 171.674 47.2051 173.279 47.7793C175.975 48.7402 177.826 49.7715 178.834 50.873C179.854 51.9746 180.363 53.4043 180.363 55.1621ZM191.402 59.9434C191.918 59.9434 192.416 59.9082 192.896 59.8379C193.377 59.7559 193.758 59.6738 194.039 59.5918V61.8242C193.723 61.9766 193.254 62.0996 192.633 62.1934C192.023 62.2988 191.473 62.3516 190.98 62.3516C187.254 62.3516 185.391 60.3887 185.391 56.4629V45.002H182.631V43.5957L185.391 42.3828L186.621 38.2695H188.309V42.7344H193.898V45.002H188.309V56.3398C188.309 57.5 188.584 58.3906 189.135 59.0117C189.686 59.6328 190.441 59.9434 191.402 59.9434ZM214.535 52.3496C214.535 55.4902 213.744 57.9453 212.162 59.7148C210.58 61.4727 208.395 62.3516 205.605 62.3516C203.883 62.3516 202.354 61.9473 201.018 61.1387C199.682 60.3301 198.65 59.1699 197.924 57.6582C197.197 56.1465 196.834 54.377 196.834 52.3496C196.834 49.209 197.619 46.7656 199.189 45.0195C200.76 43.2617 202.939 42.3828 205.729 42.3828C208.424 42.3828 210.562 43.2793 212.145 45.0723C213.738 46.8652 214.535 49.291 214.535 52.3496ZM199.857 52.3496C199.857 54.8105 200.35 56.6855 201.334 57.9746C202.318 59.2637 203.766 59.9082 205.676 59.9082C207.586 59.9082 209.033 59.2695 210.018 57.9922C211.014 56.7031 211.512 54.8223 211.512 52.3496C211.512 49.9004 211.014 48.043 210.018 46.7773C209.033 45.5 207.574 44.8613 205.641 44.8613C203.73 44.8613 202.289 45.4883 201.316 46.7422C200.344 47.9961 199.857 49.8652 199.857 52.3496ZM228.457 42.3828C229.312 42.3828 230.08 42.4531 230.76 42.5938L230.355 45.3008C229.559 45.125 228.855 45.0371 228.246 45.0371C226.688 45.0371 225.352 45.6699 224.238 46.9355C223.137 48.2012 222.586 49.7773 222.586 51.6641V62H219.668V42.7344H222.076L222.41 46.3027H222.551C223.266 45.0488 224.127 44.082 225.135 43.4023C226.143 42.7227 227.25 42.3828 228.457 42.3828ZM242.502 62.3516C239.654 62.3516 237.404 61.4844 235.752 59.75C234.111 58.0156 233.291 55.6074 233.291 52.5254C233.291 49.4199 234.053 46.9531 235.576 45.125C237.111 43.2969 239.168 42.3828 241.746 42.3828C244.16 42.3828 246.07 43.1797 247.477 44.7734C248.883 46.3555 249.586 48.4473 249.586 51.0488V52.8945H236.314C236.373 55.1562 236.941 56.873 238.02 58.0449C239.109 59.2168 240.639 59.8027 242.607 59.8027C244.682 59.8027 246.732 59.3691 248.76 58.502V61.1035C247.729 61.5488 246.75 61.8652 245.824 62.0527C244.91 62.252 243.803 62.3516 242.502 62.3516ZM241.711 44.8262C240.164 44.8262 238.928 45.3301 238.002 46.3379C237.088 47.3457 236.549 48.7402 236.385 50.5215H246.457C246.457 48.6816 246.047 47.2754 245.227 46.3027C244.406 45.3184 243.234 44.8262 241.711 44.8262Z" fill="white"/>
</svg>
