<svg width="75" height="75" viewBox="0 0 75 75" fill="none" xmlns="http://www.w3.org/2000/svg">
<path d="M54.2097 60.1465L50.5324 40.9213L36.917 51.6568L42.3703 58.6816L29.1281 70.8826C28.8645 71.125 28.6927 71.4511 28.6418 71.8056C28.5908 72.1601 28.6639 72.5213 28.8485 72.8281C29.0332 73.135 29.3181 73.3687 29.6552 73.4897C29.9922 73.6108 30.3607 73.6117 30.6984 73.4924L50.5711 66.4834C51.8353 66.037 52.8977 65.1522 53.5653 63.9896C54.2329 62.8269 54.4616 61.4633 54.2097 60.1465Z" fill="#F2F2F2"/>
<path d="M16.216 22.1531L35.4412 25.8298L24.7056 39.4459L17.6808 33.9925L5.47987 47.2359C5.23732 47.4991 4.91138 47.6705 4.55707 47.7213C4.20276 47.772 3.8418 47.6989 3.53514 47.5144C3.22847 47.3298 2.99489 47.0451 2.87384 46.7082C2.75278 46.3714 2.75167 46.0031 2.87069 45.6656L9.87908 25.7929C10.3252 24.5284 11.2099 23.4658 12.3726 22.798C13.5353 22.1301 14.899 21.9013 16.216 22.1531Z" fill="#F2F2F2"/>
<path d="M58.983 3.12198C51.7801 5.34268 43.0244 10.254 34.7949 20.7575C25.308 32.8659 20.1793 39.811 17.4307 43.711L32.6996 58.98C36.5996 56.2313 43.5447 51.1026 55.6531 41.6157C66.1561 33.3862 71.068 24.6306 73.2898 17.4282L58.983 3.12198Z" fill="#F2F2F2"/>
<path d="M55.6555 41.6176C43.5459 51.1021 36.6031 56.2303 32.7008 58.9824L29.9053 56.1869C33.8088 53.4377 40.7551 48.3113 52.86 38.8226C63.3652 30.5937 68.2754 21.8375 70.4967 14.6375L73.2875 17.4289C71.0709 24.6324 66.1561 33.3846 55.6555 41.6176Z" fill="#C8CBD2"/>
<path d="M74.9066 3.9914C74.8564 3.34882 74.5786 2.74525 74.123 2.28928C73.6675 1.83331 73.0642 1.55488 72.4217 1.50409C67.0816 1.15565 61.7294 1.96967 56.7344 3.89003L72.5207 19.6764C74.4407 14.682 75.2547 9.33073 74.9066 3.9914Z" fill="#F2F2F2"/>
<path d="M72.5223 19.6741L69.7314 16.8833C71.6107 11.9764 72.431 6.72759 72.1385 1.48132C72.2346 1.49011 72.3301 1.4989 72.4221 1.503C73.0643 1.55407 73.6672 1.83234 74.1228 2.28787C74.5783 2.74339 74.8565 3.34636 74.9076 3.98855C75.2532 9.32791 74.4395 14.6788 72.5223 19.6741Z" fill="#C8CBD2"/>
<path d="M19.1242 41.3437C17.2984 43.8632 16.1547 45.5308 15.4463 46.6066C15.1234 47.0966 14.9798 47.6831 15.0397 48.2668C15.0996 48.8505 15.3593 49.3957 15.775 49.8099L26.6019 60.6368C27.0163 61.0523 27.5614 61.3119 28.1451 61.3717C28.7288 61.4314 29.3153 61.2878 29.8052 60.9649C30.881 60.2565 32.5474 59.1128 35.0681 57.287L19.1242 41.3437Z" fill="#DEDEDE"/>
<path d="M35.068 57.2852C32.5432 59.1127 30.8773 60.2553 29.8045 60.9614C29.315 61.2864 28.7279 61.4315 28.1434 61.3719C27.5589 61.3123 27.0132 61.0516 26.5994 60.6344L23.8086 57.8436C24.2233 58.2591 24.7688 58.5186 25.3529 58.5782C25.9369 58.6377 26.5236 58.4937 27.0137 58.1705C28.0865 57.4645 29.7523 56.3219 32.2772 54.4944L35.068 57.2852Z" fill="#ACACAC"/>
<path d="M55.4459 31.6103C59.6025 29.8874 61.5753 25.1211 59.8524 20.9646C58.1295 16.8081 53.3633 14.8352 49.2068 16.5581C45.0502 18.281 43.0773 23.0472 44.8002 27.2038C46.5231 31.3603 51.2894 33.3332 55.4459 31.6103Z" fill="#C8CBD2"/>
<path d="M58.0756 29.8563C57.3192 30.6131 56.4212 31.2134 55.4328 31.623C54.4443 32.0326 53.3849 32.2434 52.3149 32.2434C51.245 32.2434 50.1856 32.0326 49.1971 31.623C48.2087 31.2134 47.3106 30.6131 46.5543 29.8563C46.2501 29.5504 45.9689 29.2226 45.7129 28.8754C47.2823 30.0114 49.2052 30.551 51.1366 30.3972C53.0679 30.2435 54.8812 29.4065 56.2512 28.0366C57.6211 26.6666 58.4581 24.8533 58.6118 22.922C58.7656 20.9906 58.226 19.0677 57.09 17.4983C57.4371 17.7545 57.7649 18.0357 58.0709 18.3397C59.5985 19.8664 60.4571 21.9373 60.458 24.097C60.4589 26.2567 59.6019 28.3283 58.0756 29.8563Z" fill="#ACACAC"/>
<line x1="13.3293" y1="54.3763" x2="5.32925" y2="61.3763" stroke="#DEDEDE"/>
<line x1="21.3293" y1="62.3763" x2="13.3293" y2="69.3763" stroke="#DEDEDE"/>
<line x1="16.3345" y1="59.3716" x2="6.33448" y2="68.3717" stroke="#DEDEDE"/>
</svg>
