<svg width="47" height="45" viewBox="0 0 47 45" fill="none" xmlns="http://www.w3.org/2000/svg">
<path d="M30.4067 38.8605L28.8867 30.9141L23.259 35.3514L25.5131 38.255L20.0396 43.2981C19.9307 43.3983 19.8597 43.5331 19.8386 43.6796C19.8176 43.8261 19.8478 43.9754 19.9241 44.1022C20.0004 44.2291 20.1182 44.3257 20.2575 44.3757C20.3968 44.4257 20.5491 44.4261 20.6887 44.3768L28.9027 41.4797C29.4253 41.2953 29.8644 40.9295 30.1404 40.449C30.4163 39.9684 30.5108 39.4048 30.4067 38.8605Z" fill="#F2F2F2"/>
<path d="M14.7027 23.1569L22.6491 24.6767L18.2118 30.3046L15.3082 28.0506L10.2651 33.5245C10.1649 33.6333 10.0301 33.7041 9.88369 33.7251C9.73724 33.7461 9.58804 33.7159 9.46129 33.6396C9.33453 33.5633 9.23799 33.4456 9.18795 33.3064C9.13791 33.1672 9.13745 33.0149 9.18665 32.8754L12.0835 24.6614C12.2678 24.1387 12.6335 23.6995 13.1141 23.4235C13.5947 23.1474 14.1583 23.0529 14.7027 23.1569Z" fill="#F2F2F2"/>
<path d="M32.3797 15.2905C29.4025 16.2084 25.7835 18.2384 22.382 22.5799C18.4607 27.5847 16.3409 30.4553 15.2048 32.0673L21.5159 38.3785C23.1279 37.2424 25.9986 35.1225 31.0034 31.2013C35.3446 27.7998 37.3749 24.1807 38.2932 21.2038L32.3797 15.2905Z" fill="#F2F2F2"/>
<path d="M31.0043 31.2016C25.999 35.1219 23.1293 37.2415 21.5163 38.379L20.3608 37.2236C21.9743 36.0872 24.8454 33.9683 29.8488 30.0463C34.191 26.6451 36.2205 23.0258 37.1386 20.0498L38.2922 21.2036C37.376 24.181 35.3445 27.7986 31.0043 31.2016Z" fill="#C8CBD2"/>
<path d="M38.9615 15.6499C38.9408 15.3843 38.8259 15.1348 38.6376 14.9464C38.4493 14.7579 38.2 14.6428 37.9344 14.6218C35.7271 14.4778 33.5149 14.8143 31.4503 15.608L37.9753 22.133C38.7689 20.0687 39.1054 17.8568 38.9615 15.6499Z" fill="#F2F2F2"/>
<path d="M37.976 22.132L36.8224 20.9784C37.5992 18.9503 37.9383 16.7808 37.8174 14.6123C37.8571 14.6159 37.8966 14.6196 37.9346 14.6213C38.2 14.6424 38.4492 14.7574 38.6375 14.9457C38.8258 15.134 38.9408 15.3832 38.9619 15.6486C39.1048 17.8556 38.7684 20.0673 37.976 22.132Z" fill="#C8CBD2"/>
<path d="M15.9045 31.0889C15.1498 32.1303 14.6771 32.8195 14.3842 33.2642C14.2508 33.4667 14.1914 33.7092 14.2162 33.9504C14.2409 34.1917 14.3483 34.417 14.5201 34.5882L18.9953 39.0634C19.1665 39.2351 19.3918 39.3424 19.6331 39.3671C19.8744 39.3918 20.1168 39.3324 20.3193 39.199C20.764 38.9062 21.4527 38.4334 22.4946 37.6788L15.9045 31.0889Z" fill="#DEDEDE"/>
<path d="M22.4949 37.678C21.4513 38.4333 20.7628 38.9056 20.3193 39.1974C20.117 39.3318 19.8743 39.3918 19.6327 39.3671C19.3911 39.3425 19.1656 39.2347 18.9945 39.0623L17.841 37.9088C18.0124 38.0805 18.2379 38.1878 18.4793 38.2124C18.7207 38.237 18.9632 38.1775 19.1658 38.0439C19.6092 37.7521 20.2978 37.2798 21.3413 36.5244L22.4949 37.678Z" fill="#ACACAC"/>
<path d="M30.9177 27.0654C32.6358 26.3533 33.4512 24.3833 32.7391 22.6652C32.027 20.9472 30.0569 20.1317 28.3389 20.8439C26.6208 21.556 25.8054 23.526 26.5175 25.2441C27.2296 26.9621 29.1997 27.7776 30.9177 27.0654Z" fill="#C8CBD2"/>
<path d="M32.0046 26.3404C31.692 26.6532 31.3208 26.9013 30.9123 27.0706C30.5037 27.2399 30.0658 27.3271 29.6236 27.3271C29.1813 27.3271 28.7434 27.2399 28.3349 27.0706C27.9263 26.9013 27.5551 26.6532 27.2425 26.3404C27.1168 26.214 27.0005 26.0785 26.8947 25.935C27.5434 26.4045 28.3382 26.6275 29.1365 26.564C29.9348 26.5004 30.6843 26.1545 31.2505 25.5882C31.8168 25.022 32.1627 24.2725 32.2263 23.4742C32.2898 22.6759 32.0668 21.8811 31.5973 21.2324C31.7407 21.3383 31.8762 21.4546 32.0027 21.5802C32.6341 22.2112 32.989 23.0672 32.9894 23.9599C32.9897 24.8526 32.6355 25.7088 32.0046 26.3404Z" fill="#ACACAC"/>
<line y1="-0.5" x2="4.3938" y2="-0.5" transform="matrix(-0.752576 0.658505 -0.658504 -0.752577 13.3734 36.3198)" stroke="#DEDEDE"/>
<line x1="17.0092" y1="40.0028" x2="13.7026" y2="42.8961" stroke="#DEDEDE"/>
<line x1="14.9478" y1="38.7584" x2="10.8145" y2="42.4784" stroke="#DEDEDE"/>
<path d="M37.718 36.2226L39.2 37.0416L38.693 37.9256L37.185 37.0416L37.198 38.7186H36.21L36.223 37.0546L34.728 37.9256L34.208 37.0416L35.703 36.2226L34.208 35.4036L34.728 34.5066L36.223 35.3906L36.21 33.7266H37.198L37.185 35.4036L38.693 34.5066L39.2 35.4036L37.718 36.2226Z" fill="#F2F2F2"/>
<path d="M12.718 10.3358L14.2 11.1548L13.693 12.0388L12.185 11.1548L12.198 12.8318H11.21L11.223 11.1678L9.728 12.0388L9.208 11.1548L10.703 10.3358L9.208 9.51684L9.728 8.61984L11.223 9.50384L11.21 7.83984H12.198L12.185 9.51684L13.693 8.61984L14.2 9.51684L12.718 10.3358Z" fill="#F2F2F2"/>
<path d="M44.718 22.8617L46.2 23.6807L45.693 24.5647L44.185 23.6807L44.198 25.3577H43.21L43.223 23.6937L41.728 24.5647L41.208 23.6807L42.703 22.8617L41.208 22.0427L41.728 21.1457L43.223 22.0297L43.21 20.3657H44.198L44.185 22.0427L45.693 21.1457L46.2 22.0427L44.718 22.8617Z" fill="#F2F2F2"/>
<path d="M3.718 27.85L5.2 28.669L4.693 29.553L3.185 28.669L3.198 30.346H2.21L2.223 28.682L0.728 29.553L0.208 28.669L1.703 27.85L0.208 27.031L0.728 26.134L2.223 27.018L2.21 25.354H3.198L3.185 27.031L4.693 26.134L5.2 27.031L3.718 27.85Z" fill="#F2F2F2"/>
<path d="M31.718 5.85L33.2 6.669L32.693 7.553L31.185 6.669L31.198 8.346H30.21L30.223 6.682L28.728 7.553L28.208 6.669L29.703 5.85L28.208 5.031L28.728 4.134L30.223 5.018L30.21 3.354H31.198L31.185 5.031L32.693 4.134L33.2 5.031L31.718 5.85Z" fill="#F2F2F2"/>
</svg>