<svg width="28" height="40" viewBox="0 0 28 40" fill="none" xmlns="http://www.w3.org/2000/svg">
<path d="M27.4677 1.16245C27.4677 0.523104 26.9446 0 26.3053 0H8.7406H1.69614C1.05679 0 0.533687 0.523104 0.533687 1.16245C0.533687 1.8018 1.05679 2.32491 1.69614 2.32491H8.7406C13.5299 2.32491 17.4822 5.92851 18.0635 10.4621H1.70776C1.06841 10.4621 0.545311 10.9852 0.545311 11.6245C0.545311 12.2639 1.06841 12.787 1.70776 12.787H18.0635C17.4939 17.4368 13.5299 21.0404 8.7406 21.0404H1.69614C1.21953 21.0404 0.789426 21.3426 0.615058 21.7844C0.44069 22.2261 0.545311 22.7376 0.894047 23.0631L18.482 39.6861C18.7028 39.8954 18.9934 40 19.284 40C19.5979 40 19.9002 39.8838 20.1326 39.6396C20.5744 39.1747 20.5511 38.4191 20.0861 37.9773L4.62552 23.3653H8.7406C14.8086 23.3653 19.8188 18.7155 20.4 12.787H26.3053C26.9446 12.787 27.4677 12.2639 27.4677 11.6245C27.4677 10.9852 26.9446 10.4621 26.3053 10.4621H20.4C20.0629 7.20721 18.3076 4.18483 15.7386 2.32491H26.3053C26.9446 2.32491 27.4677 1.8018 27.4677 1.16245Z" fill="#3ABEF0"/>
</svg>
