<svg width="40" height="40" viewBox="0 0 40 40" fill="none" xmlns="http://www.w3.org/2000/svg">
<path d="M38.1562 38.4374H36.4426V13.5574C36.4426 12.3994 35.5005 11.4573 34.3425 11.4573H30.5125C29.3544 11.4573 28.4123 12.3995 28.4123 13.5574V38.4374H24.0614V24.83C24.0614 23.672 23.1193 22.7299 21.9612 22.7299H18.1312C16.9732 22.7299 16.0311 23.672 16.0311 24.83V38.4374H11.6801V31.3902C11.6801 30.2322 10.738 29.2901 9.57998 29.2901H5.74991C4.59186 29.2901 3.64975 30.2323 3.64975 31.3902V38.4374H1.84381C1.41233 38.4374 1.06256 38.7872 1.06256 39.2187C1.06256 39.6502 1.41233 39.9999 1.84381 39.9999H38.1562C38.5876 39.9999 38.9374 39.6502 38.9374 39.2187C38.9374 38.7872 38.5876 38.4374 38.1562 38.4374ZM10.1175 38.4374H5.21217V31.3902C5.21217 31.0938 5.45334 30.8526 5.74983 30.8526H9.57983C9.87631 30.8526 10.1175 31.0938 10.1175 31.3902V38.4374ZM22.4988 38.4374H17.5935V24.83C17.5935 24.5335 17.8347 24.2924 18.1312 24.2924H21.9612C22.2576 24.2924 22.4988 24.5335 22.4988 24.83V38.4374ZM34.8801 38.4374H29.9748V13.5574C29.9748 13.2609 30.216 13.0198 30.5125 13.0198H34.3425C34.639 13.0198 34.8801 13.2609 34.8801 13.5574V38.4374Z" fill="#3ABEF0"/>
<path d="M36.4408 0.821562C36.4517 0.608359 36.3767 0.391563 36.2139 0.22875C36.0511 0.0659375 35.8343 -0.00914063 35.6211 0.001875C35.6085 0.00132813 35.5961 0 35.5833 0H30.8567C30.4252 0 30.0755 0.349766 30.0755 0.78125C30.0755 1.21273 30.4252 1.5625 30.8567 1.5625H33.7752L26.052 9.28578L23.1395 6.37328C22.993 6.2268 22.7943 6.14445 22.5871 6.14445C22.3799 6.14445 22.1812 6.2268 22.0347 6.37328L7.99022 20.4178C7.68514 20.7229 7.68514 21.2176 7.99022 21.5227C8.1428 21.6752 8.34272 21.7514 8.54264 21.7514C8.74257 21.7514 8.94257 21.6752 9.09507 21.5226L22.5871 8.03047L25.4996 10.943C25.8047 11.248 26.2994 11.248 26.6045 10.943L34.8801 2.66742V5.30883C34.8801 5.74031 35.2299 6.09008 35.6614 6.09008C36.0929 6.09008 36.4426 5.74031 36.4426 5.30883V0.859375C36.4426 0.846641 36.4413 0.834219 36.4408 0.821562Z" fill="#3ABEF0"/>
<path d="M5.90936 24.4773C6.34084 24.4773 6.69061 24.1275 6.69061 23.696C6.69061 23.2646 6.34084 22.9148 5.90936 22.9148C5.47789 22.9148 5.12811 23.2646 5.12811 23.696C5.12811 24.1275 5.47789 24.4773 5.90936 24.4773Z" fill="#3ABEF0"/>
</svg>
